<?xml version="1.0" encoding="UTF-8"?>
<svg id="Layer_2" data-name="Layer 2" xmlns="http://www.w3.org/2000/svg" viewBox="0 0 528.08 224.05">
  <defs>
    <style>
      .cls-1 {
        fill: #231f20;
      }

      .cls-2 {
        fill: #00999e;
      }
    </style>
  </defs>
  <g id="Layer_1-2" data-name="Layer 1">
    <g>
      <g>
        <path class="cls-2" d="M147.29,78.27l30.76.09s44.69,55.52,63.03,54.23l-23.32-53.17h34.11l38.51,52.9.03-52.9h16.88v74.35h-24.1l-35.24-52.37,23.48,52.37s-35.15,1.72-41.17,0c-25.67-7.32-82.96-75.51-82.96-75.51Z"/>
        <path class="cls-2" d="M342.82,78.37c11.06,0,18.92,5.06,22.92,11.59v-10.53h22.78v74.35h-22.78v-10.53c-4.13,6.53-11.99,11.59-23.05,11.59-18.12,0-32.64-14.92-32.64-38.38s14.52-38.11,32.78-38.11ZM349.48,98.22c-8.53,0-16.26,6.4-16.26,18.25s7.73,18.52,16.26,18.52,16.26-6.53,16.26-18.39-7.6-18.39-16.26-18.39Z"/>
        <path class="cls-2" d="M391.28,55.18h22.78v54.5l22.52-30.25h28.12l-30.91,37.31,31.18,37.04h-28.25l-22.65-31.18v31.18h-22.78V55.18Z"/>
        <path class="cls-2" d="M491.04,154.85c-21.85,0-37.58-14.66-37.58-38.24s15.46-38.24,37.58-38.24,37.04,14.39,37.04,37.04c0,2.13-.13,4.4-.4,6.66h-51.57c.8,9.73,6.8,14.26,14.12,14.26,6.4,0,9.99-3.2,11.86-7.2h24.25c-3.6,14.52-16.79,25.72-35.31,25.72ZM476.24,109.41h28.51c0-8.13-6.4-12.79-13.99-12.79s-13.19,4.53-14.52,12.79Z"/>
        <g>
          <path class="cls-2" d="M0,179.69c7.81-16.5,20.13-38.19,39.31-60.45,19.39-22.51,39.24-38.02,54.52-48.21,1.75,7.25,4.13,15.25,7.42,23.74,2.02,5.21,4.15,10.04,6.3,14.46-8.24,8.37-17.46,19.26-25.96,33.01-16.66,26.92-23.18,52.77-25.96,70.09-5.19-16.44-10.38-32.88-15.58-49.33-13.35,5.56-26.7,11.13-40.05,16.69Z"/>
          <path class="cls-2" d="M260.46,176.71c-28.41-11.77-55.68-26.71-79.48-46.19-23.8-19.47-44.08-43.61-57.12-71.46-4.75-10.14-8.55-20.85-9.64-31.99-.39-4.05-.41-8.25,1.11-12.02,1.52-3.77,4.84-7.03,8.89-7.46,5.69-.61,10.71,4.68,11.69,10.32.98,5.64-1.08,11.35-3.55,16.52,3.26-5.66,8.93-9.88,15.29-11.38,1.53-.36,3.2-.56,4.63.1,4.11,1.89,2.61,8.13.06,11.87-6.25,9.16-15.15,16.5-25.34,20.89,4.12,8.35,8.24,16.69,12.36,25.04-.38-13,3.87-26.08,11.81-36.37,2.54-3.3,5.48-6.35,7.38-10.05s2.65-8.34.63-11.98c-3.4-6.12-12.53-6.17-18.69-2.85,2-8.27-4.43-17.15-12.7-19.15-10.65-2.58-20.68,4.47-25.87,13.27-5.78,9.78-8.14,21.33-8.01,32.61.16,13.22,3.57,26.21,7.91,38.7,20.32,58.45,62.46,109.26,116.76,138.93-.3-9.65-.59-19.31-.89-28.96,14.26-6.12,28.52-12.25,42.78-18.37Z"/>
          <path class="cls-2" d="M114.94,131.16c-5-.22-10.84-.86-17.22-2.31-11.09-2.53-19.94-6.62-26.29-10.23-3.05,8.05-6.1,16.1-9.15,24.15,7.2,3.07,16.25,6.2,26.91,8.33,14.69,2.94,27.52,3.02,37.15,2.32-3.8-7.42-7.6-14.84-11.4-22.26Z"/>
        </g>
      </g>
      <g>
        <path class="cls-1" d="M275.58,169.64h-3.11v2.35h2.77v1.07h-2.77v2.46h3.11v1.07h-4.43v-8.03h4.43v1.07Z"/>
        <path class="cls-1" d="M280.9,170.24h1.36l-3.9,9.34h-1.36l1.29-3.09-2.5-6.25h1.47l1.79,4.84,1.86-4.84Z"/>
        <path class="cls-1" d="M285.34,176.7c-1.82,0-3.17-1.29-3.17-3.29s1.29-3.28,3.17-3.28,3.09,1.26,3.09,3.13c0,.22-.01.43-.05.65h-4.86c.09,1.05.84,1.68,1.81,1.68.81,0,1.26-.39,1.5-.89h1.42c-.36,1.11-1.36,2-2.92,2ZM283.54,172.85h3.52c-.02-.98-.8-1.6-1.78-1.6-.89,0-1.6.6-1.74,1.6Z"/>
        <path class="cls-1" d="M291.38,176.7c-1.52,0-2.6-.9-2.65-2.05h1.36c.05.52.54.95,1.27.95s1.17-.32,1.17-.76c0-1.25-3.69-.53-3.69-2.86,0-1.02.95-1.83,2.45-1.83s2.39.77,2.46,2.04h-1.31c-.05-.55-.47-.93-1.19-.93s-1.07.29-1.07.72c0,1.28,3.59.56,3.66,2.86,0,1.07-.93,1.88-2.43,1.88Z"/>
        <path class="cls-1" d="M300.6,176.68c-2.26,0-4.1-1.7-4.1-4.11s1.83-4.1,4.1-4.1,4.1,1.7,4.1,4.1-1.81,4.11-4.1,4.11ZM300.6,175.54c1.59,0,2.75-1.15,2.75-2.96s-1.15-2.94-2.75-2.94-2.75,1.13-2.75,2.94,1.15,2.96,2.75,2.96Z"/>
        <path class="cls-1" d="M308.86,170.14c1.67,0,2.99,1.29,2.99,3.25s-1.31,3.31-2.99,3.31c-1.05,0-1.8-.53-2.21-1.03v3.95h-1.31v-9.38h1.31v.93c.4-.53,1.18-1.04,2.21-1.04ZM308.57,171.28c-.98,0-1.93.77-1.93,2.13s.95,2.15,1.93,2.15,1.94-.8,1.94-2.17-.95-2.11-1.94-2.11Z"/>
        <path class="cls-1" d="M315.24,176.7c-1.82,0-3.17-1.29-3.17-3.29s1.29-3.28,3.17-3.28,3.09,1.26,3.09,3.13c0,.22-.01.43-.05.65h-4.86c.09,1.05.84,1.68,1.81,1.68.81,0,1.26-.39,1.5-.89h1.42c-.36,1.11-1.36,2-2.92,2ZM313.44,172.85h3.52c-.02-.98-.8-1.6-1.78-1.6-.89,0-1.6.6-1.74,1.6Z"/>
        <path class="cls-1" d="M323.48,173.04c0-1.17-.63-1.77-1.59-1.77s-1.6.6-1.6,1.77v3.55h-1.31v-6.36h1.31v.73c.43-.52,1.13-.83,1.89-.83,1.49,0,2.61.93,2.61,2.71v3.75h-1.3v-3.55Z"/>
        <path class="cls-1" d="M326.34,176.68c-.47,0-.84-.37-.84-.84s.37-.84.84-.84.83.37.83.84-.37.84-.83.84Z"/>
        <path class="cls-1" d="M329.88,168.58h5.59v1.07h-2.13v6.94h-1.31v-6.94h-2.15v-1.07Z"/>
        <path class="cls-1" d="M338.71,170.14c1.07,0,1.81.51,2.2,1.03v-.92h1.33v6.36h-1.33v-.95c-.4.54-1.17,1.05-2.23,1.05-1.65,0-2.98-1.35-2.98-3.31s1.33-3.25,3-3.25ZM338.99,171.28c-.98,0-1.93.74-1.93,2.11s.95,2.17,1.93,2.17,1.93-.77,1.93-2.15-.93-2.13-1.93-2.13Z"/>
        <path class="cls-1" d="M343.32,168.06h1.31v4.96l2.31-2.78h1.82l-2.93,3.18,2.93,3.17h-1.78l-2.35-2.73v2.73h-1.31v-8.54Z"/>
        <path class="cls-1" d="M351.8,176.7c-1.82,0-3.17-1.29-3.17-3.29s1.29-3.28,3.17-3.28,3.09,1.26,3.09,3.13c0,.22-.01.43-.05.65h-4.86c.09,1.05.84,1.68,1.81,1.68.81,0,1.26-.39,1.5-.89h1.42c-.36,1.11-1.36,2-2.92,2ZM350,172.85h3.52c-.02-.98-.8-1.6-1.78-1.6-.89,0-1.6.6-1.74,1.6Z"/>
        <path class="cls-1" d="M362.71,174.96h-3.36l-.58,1.64h-1.37l2.87-8.03h1.52l2.87,8.03h-1.38l-.58-1.64ZM361.04,170.16l-1.31,3.73h2.62l-1.3-3.73Z"/>
        <path class="cls-1" d="M367.95,170.14c1.56,0,2.57.77,2.93,2.11h-1.42c-.22-.61-.73-1-1.51-1-1.06,0-1.77.78-1.77,2.17s.7,2.18,1.77,2.18c.78,0,1.27-.35,1.51-1h1.42c-.36,1.25-1.37,2.11-2.93,2.11-1.82,0-3.11-1.29-3.11-3.29s1.29-3.28,3.11-3.28Z"/>
        <path class="cls-1" d="M371.75,171.31h-.75v-1.07h.75v-1.58h1.33v1.58h1.55v1.07h-1.55v3.52c0,.47.18.67.74.67h.81v1.1h-1.04c-1.13,0-1.83-.47-1.83-1.77v-3.52Z"/>
        <path class="cls-1" d="M375.01,168.56c0-.47.37-.84.84-.84s.83.37.83.84-.37.84-.83.84-.84-.37-.84-.84ZM375.19,170.24h1.31v6.36h-1.31v-6.36Z"/>
        <path class="cls-1" d="M380.34,176.7c-1.81,0-3.18-1.29-3.18-3.29s1.43-3.28,3.24-3.28,3.24,1.28,3.24,3.28-1.48,3.29-3.3,3.29ZM380.34,175.56c.98,0,1.95-.7,1.95-2.15s-.93-2.13-1.92-2.13-1.88.69-1.88,2.13.85,2.15,1.85,2.15Z"/>
        <path class="cls-1" d="M388.8,173.04c0-1.17-.63-1.77-1.59-1.77s-1.6.6-1.6,1.77v3.55h-1.31v-6.36h1.31v.73c.43-.52,1.13-.83,1.89-.83,1.49,0,2.61.93,2.61,2.71v3.75h-1.3v-3.55Z"/>
        <path class="cls-1" d="M391.66,176.68c-.47,0-.84-.37-.84-.84s.37-.84.84-.84.83.37.83.84-.37.84-.83.84Z"/>
        <path class="cls-1" d="M400.7,173.09h-3.77v3.51h-1.31v-8.02h1.31v3.44h3.77v-3.44h1.31v8.02h-1.31v-3.51Z"/>
        <path class="cls-1" d="M405.83,176.7c-1.82,0-3.17-1.29-3.17-3.29s1.29-3.28,3.17-3.28,3.09,1.26,3.09,3.13c0,.22-.01.43-.05.65h-4.86c.09,1.05.84,1.68,1.81,1.68.81,0,1.26-.39,1.5-.89h1.42c-.36,1.11-1.36,2-2.92,2ZM404.03,172.85h3.52c-.02-.98-.8-1.6-1.78-1.6-.89,0-1.6.6-1.74,1.6Z"/>
        <path class="cls-1" d="M409.57,168.06h1.31v8.54h-1.31v-8.54Z"/>
        <path class="cls-1" d="M415.49,170.14c1.67,0,2.99,1.29,2.99,3.25s-1.31,3.31-2.99,3.31c-1.05,0-1.8-.53-2.21-1.03v3.95h-1.31v-9.38h1.31v.93c.4-.53,1.18-1.04,2.21-1.04ZM415.2,171.28c-.98,0-1.93.77-1.93,2.13s.95,2.15,1.93,2.15,1.94-.8,1.94-2.17-.95-2.11-1.94-2.11Z"/>
        <path class="cls-1" d="M425.14,176.68c-2.26,0-4.1-1.7-4.1-4.11s1.83-4.1,4.1-4.1,4.1,1.7,4.1,4.1-1.81,4.11-4.1,4.11ZM425.14,175.54c1.59,0,2.75-1.15,2.75-2.96s-1.15-2.94-2.75-2.94-2.75,1.13-2.75,2.94,1.15,2.96,2.75,2.96Z"/>
        <path class="cls-1" d="M430.09,171.31h-.75v-1.07h.75v-1.58h1.33v1.58h1.55v1.07h-1.55v3.52c0,.47.18.67.74.67h.81v1.1h-1.04c-1.13,0-1.83-.47-1.83-1.77v-3.52Z"/>
        <path class="cls-1" d="M433.52,168.06h1.31v2.92c.44-.53,1.15-.84,1.97-.84,1.42,0,2.53.93,2.53,2.71v3.75h-1.3v-3.55c0-1.17-.63-1.77-1.59-1.77s-1.6.6-1.6,1.77v3.55h-1.31v-8.54Z"/>
        <path class="cls-1" d="M443.09,176.7c-1.82,0-3.17-1.29-3.17-3.29s1.29-3.28,3.17-3.28,3.09,1.26,3.09,3.13c0,.22-.01.43-.05.65h-4.86c.09,1.05.84,1.68,1.81,1.68.81,0,1.26-.39,1.5-.89h1.42c-.36,1.11-1.36,2-2.92,2ZM441.29,172.85h3.52c-.02-.98-.8-1.6-1.78-1.6-.89,0-1.6.6-1.74,1.6Z"/>
        <path class="cls-1" d="M448.14,176.6h-1.31v-6.36h1.31v.92c.37-.63,1-1.03,1.9-1.03v1.36h-.33c-.97,0-1.57.4-1.57,1.75v3.35Z"/>
        <path class="cls-1" d="M452.92,176.7c-1.52,0-2.6-.9-2.65-2.05h1.36c.05.52.54.95,1.27.95s1.17-.32,1.17-.76c0-1.25-3.69-.53-3.69-2.86,0-1.02.95-1.83,2.45-1.83s2.39.77,2.46,2.04h-1.31c-.05-.55-.47-.93-1.19-.93s-1.07.29-1.07.72c0,1.28,3.59.56,3.66,2.86,0,1.07-.93,1.88-2.43,1.88Z"/>
        <path class="cls-1" d="M465.35,172.62c0,2.47-1.68,3.98-4.26,3.98h-2.62v-8.02h2.62c2.57,0,4.26,1.56,4.26,4.04ZM461.09,175.52c1.89,0,2.91-1.08,2.91-2.91s-1.02-2.96-2.91-2.96h-1.3v5.87h1.3Z"/>
        <path class="cls-1" d="M468.76,176.7c-1.81,0-3.18-1.29-3.18-3.29s1.43-3.28,3.24-3.28,3.24,1.28,3.24,3.28-1.48,3.29-3.3,3.29ZM468.76,175.56c.98,0,1.95-.7,1.95-2.15s-.93-2.13-1.92-2.13-1.88.69-1.88,2.13.85,2.15,1.85,2.15Z"/>
        <path class="cls-1" d="M475.27,171.31h-.75v-1.07h.75v-1.58h1.33v1.58h1.55v1.07h-1.55v3.52c0,.47.18.67.74.67h.81v1.1h-1.04c-1.13,0-1.83-.47-1.83-1.77v-3.52Z"/>
        <path class="cls-1" d="M478.7,168.06h1.31v2.92c.44-.53,1.15-.84,1.97-.84,1.42,0,2.53.93,2.53,2.71v3.75h-1.3v-3.55c0-1.17-.63-1.77-1.59-1.77s-1.6.6-1.6,1.77v3.55h-1.31v-8.54Z"/>
        <path class="cls-1" d="M488.28,176.7c-1.82,0-3.17-1.29-3.17-3.29s1.29-3.28,3.17-3.28,3.09,1.26,3.09,3.13c0,.22-.01.43-.05.65h-4.86c.09,1.05.84,1.68,1.81,1.68.81,0,1.26-.39,1.5-.89h1.42c-.36,1.11-1.36,2-2.92,2ZM486.48,172.85h3.52c-.02-.98-.8-1.6-1.78-1.6-.89,0-1.6.6-1.74,1.6Z"/>
        <path class="cls-1" d="M497,176.68c-1.6,0-2.84-.88-2.84-2.3h1.41c.06.66.52,1.19,1.43,1.19s1.44-.5,1.44-1.18c0-1.94-4.26-.68-4.26-3.63,0-1.41,1.12-2.28,2.76-2.28,1.53,0,2.62.81,2.73,2.18h-1.45c-.05-.54-.52-1.04-1.35-1.06-.76-.02-1.35.35-1.35,1.12,0,1.81,4.25.68,4.25,3.61,0,1.2-.98,2.35-2.77,2.35Z"/>
        <path class="cls-1" d="M503.24,170.14c1.07,0,1.81.51,2.2,1.03v-.92h1.33v6.36h-1.33v-.95c-.4.54-1.17,1.05-2.23,1.05-1.65,0-2.98-1.35-2.98-3.31s1.33-3.25,3-3.25ZM503.52,171.28c-.98,0-1.93.74-1.93,2.11s.95,2.17,1.93,2.17,1.93-.77,1.93-2.15-.93-2.13-1.93-2.13Z"/>
        <path class="cls-1" d="M516.86,173.04c0-1.17-.63-1.77-1.59-1.77s-1.6.6-1.6,1.77v3.55h-1.3v-3.55c0-1.17-.63-1.77-1.59-1.77s-1.6.6-1.6,1.77v3.55h-1.31v-6.36h1.31v.73c.43-.52,1.12-.83,1.88-.83,1,0,1.85.43,2.28,1.26.39-.77,1.29-1.26,2.21-1.26,1.49,0,2.62.93,2.62,2.71v3.75h-1.3v-3.55Z"/>
        <path class="cls-1" d="M521.92,176.7c-1.82,0-3.17-1.29-3.17-3.29s1.29-3.28,3.17-3.28,3.09,1.26,3.09,3.13c0,.22-.01.43-.05.65h-4.86c.09,1.05.84,1.68,1.81,1.68.81,0,1.26-.39,1.5-.89h1.42c-.36,1.11-1.36,2-2.92,2ZM520.12,172.85h3.52c-.02-.98-.8-1.6-1.78-1.6-.89,0-1.6.6-1.74,1.6Z"/>
        <path class="cls-1" d="M526.18,176.68c-.47,0-.84-.37-.84-.84s.37-.84.84-.84.83.37.83.84-.37.84-.83.84Z"/>
      </g>
    </g>
  </g>
</svg>