<svg width="45" height="45" viewBox="0 0 45 45" fill="none" xmlns="http://www.w3.org/2000/svg">
<g clip-path="url(#clip0_89_151)">
<path d="M22.4998 7.22791C22.8231 7.22836 23.1363 7.3402 23.3868 7.54459C23.6373 7.74899 23.8098 8.03346 23.8751 8.3501L24.9691 13.6657L30.3691 13.0638L30.6138 13.0582C30.8949 13.0762 31.1641 13.1783 31.3865 13.3511C31.609 13.5238 31.7744 13.7595 31.8614 14.0273C31.9484 14.2952 31.9529 14.5831 31.8744 14.8536C31.7958 15.1241 31.6379 15.3648 31.421 15.5445L31.2185 15.6851L26.4935 18.3654L28.7351 23.3154L28.8138 23.5488C28.8835 23.8214 28.8699 24.1087 28.7746 24.3734C28.6793 24.6381 28.5069 24.8682 28.2795 25.0338C28.0517 25.1982 27.78 25.2905 27.4993 25.2991C27.2186 25.3076 26.9417 25.2319 26.7045 25.0817L26.5076 24.9354L22.4857 21.2792L18.4638 24.9354C18.2245 25.1531 17.9174 25.2817 17.5944 25.2994C17.2713 25.3171 16.952 25.2228 16.6904 25.0325C16.4287 24.8422 16.2407 24.5675 16.1579 24.2547C16.0752 23.9419 16.1029 23.6102 16.2363 23.3154L18.4751 18.3654L13.7501 15.6823C13.4711 15.5208 13.2559 15.2685 13.1404 14.9675C13.0249 14.6666 13.0161 14.3351 13.1155 14.0284C13.2149 13.7217 13.4164 13.4584 13.6864 13.2824C13.9565 13.1063 14.2788 13.0282 14.5995 13.061L19.9995 13.6629L21.0963 8.34729L21.1666 8.11104C21.2708 7.84938 21.4512 7.62505 21.6844 7.46709C21.9176 7.30913 22.1928 7.22483 22.4745 7.2251L22.4998 7.22791Z" fill="#008080"/>
<path fill-rule="evenodd" clip-rule="evenodd" d="M22.5002 0C25.4944 0.00343298 28.4338 0.802802 31.0174 2.31621C33.601 3.82962 35.7357 6.00265 37.203 8.61268C38.6703 11.2227 39.4173 14.1759 39.3676 17.1697C39.3178 20.1634 38.4731 23.0902 36.9199 25.65L41.7012 32.8219C41.9841 33.247 42.1459 33.7411 42.1693 34.2513C42.1927 34.7614 42.0768 35.2682 41.8339 35.7175C41.5911 36.1667 41.2305 36.5413 40.791 36.8012C40.3514 37.0611 39.8493 37.1963 39.3387 37.1925L32.7574 37.1362L30.2824 43.2394C30.0894 43.7128 29.7713 44.1248 29.3621 44.4313C28.9529 44.7378 28.468 44.9272 27.9594 44.9792C27.4509 45.0312 26.9377 44.9439 26.4749 44.7266C26.0122 44.5093 25.6172 44.1702 25.3324 43.7456L22.4918 39.4987L19.6512 43.7738C19.3671 44.1986 18.9727 44.538 18.5103 44.7555C18.0479 44.973 17.535 45.0604 17.0266 45.0084C16.5183 44.9563 16.0337 44.7668 15.625 44.4601C15.2163 44.1533 14.8988 43.7411 14.7068 43.2675L12.2318 37.1644L5.65053 37.2206C5.1395 37.2254 4.63684 37.0908 4.19666 36.8311C3.75648 36.5715 3.39545 36.1967 3.15244 35.7471C2.90943 35.2975 2.79363 34.7902 2.81753 34.2797C2.84142 33.7692 3.00409 33.2749 3.28803 32.85L8.06928 25.65C6.52277 23.09 5.68383 20.1651 5.63825 17.1746C5.59267 14.184 6.34207 11.235 7.80983 8.62899C9.2776 6.02299 11.4111 3.85352 13.9922 2.34236C16.5732 0.831206 19.5093 0.0325766 22.5002 0.028125V0ZM5.62521 34.3125L13.1627 34.2478C13.445 34.2444 13.7217 34.326 13.957 34.482C14.1922 34.638 14.3751 34.8612 14.4818 35.1225L17.3224 42.1256L22.9474 33.66C22.7974 33.6675 22.6465 33.6722 22.4946 33.6741C17.4602 33.6741 12.9321 31.4606 9.83834 27.9647L5.61959 34.3209L5.62521 34.3125ZM35.1565 27.9562C32.929 30.4912 29.9883 32.2949 26.719 33.1312L24.2074 36.8719L27.6949 42.075L30.5355 35.0719C30.6416 34.8105 30.8238 34.587 31.0586 34.4305C31.2933 34.274 31.5697 34.1917 31.8518 34.1944L39.3893 34.2619L35.1705 27.9338L35.1565 27.9562ZM22.5002 2.72813C14.7377 2.72813 8.43771 9.02812 8.43771 16.7906C8.43771 24.5531 14.7377 30.8531 22.5002 30.8531C30.2627 30.8531 36.5627 24.5531 36.5627 16.7906C36.5627 9.02812 30.2627 2.72813 22.5002 2.72813Z" fill="#008080"/>
</g>
<defs>
<clipPath id="clip0_89_151">
<rect width="45" height="45" fill="white"/>
</clipPath>
</defs>
</svg>
