<svg width="14" height="14" viewBox="0 0 14 14" fill="none" xmlns="http://www.w3.org/2000/svg">
<path d="M12.6088 1.59994L1.75477 5.81727L4.9741 7.15461C5.91499 7.54513 6.66255 8.29293 7.05277 9.23394L8.3901 12.4526L12.6088 1.59994ZM13.8401 2.05461L9.62144 12.9086C9.35477 13.5953 8.58743 13.9466 7.90743 13.6953C7.74168 13.6342 7.59036 13.5395 7.46301 13.417C7.33565 13.2946 7.23502 13.1472 7.16743 12.9839L5.82943 9.76394C5.56884 9.13703 5.07047 8.6389 4.44343 8.37861L1.22477 7.04127C0.555434 6.76327 0.250101 5.99061 0.542768 5.31461C0.614667 5.14937 0.718536 4.99998 0.848396 4.87504C0.978256 4.7501 1.13154 4.65207 1.29943 4.58661L12.1534 0.367941C12.3892 0.273179 12.6477 0.249791 12.8966 0.300684C13.1456 0.351577 13.3742 0.474507 13.5538 0.654199C13.7335 0.833891 13.8565 1.06242 13.9074 1.3114C13.9583 1.56037 13.9349 1.81881 13.8401 2.05461Z" fill="#111828"/>
</svg>
