<svg width="20" height="26" viewBox="0 0 20 26" fill="none" xmlns="http://www.w3.org/2000/svg">
<path d="M15.3184 16.478L8.79703 9.09498L6.20116 6.15189C6.58105 5.89398 8.00317 5.00904 10 5.00904C11.9968 5.00904 13.419 5.88893 13.7988 6.15189L11.0569 9.2568L15.2258 13.9799L16.5603 12.473C17.3542 11.5779 17.7925 10.4047 17.7925 9.186V7.69423C17.7925 6.73342 17.5198 5.7979 17.0084 4.99892L15.0554 1.95469C14.3297 0.832069 13.1121 0.154449 11.8118 0.154449H8.11032C6.85378 0.154449 5.6703 0.786557 4.93975 1.8485L3.0793 4.55392C2.51434 5.37313 2.20751 6.36427 2.20751 7.37565V8.4477C2.20751 9.62089 2.61662 10.7536 3.3569 11.6386L6.08427 14.8851L10.1412 19.7194L14.6122 25.0443C15.0992 25.6259 15.9174 25.7674 16.5603 25.3882L19.2146 23.8155C20.0815 23.2997 20.2666 22.081 19.5896 21.3174L15.3184 16.478ZM9.08438 20.9179L5.02742 16.0836L0.410367 21.3174C-0.266605 22.081 -0.0815337 23.2997 0.785381 23.8155L3.46892 25.4084C4.10206 25.7826 4.89592 25.6562 5.38782 25.0999L9.08438 20.923V20.9179Z" fill="#015660"/>
</svg>
