<svg xmlns="http://www.w3.org/2000/svg" xmlns:xlink="http://www.w3.org/1999/xlink" width="794" zoomAndPan="magnify" viewBox="0 0 595.5 842.249979" height="1123" preserveAspectRatio="xMidYMid meet" version="1.0"><defs><g/><clipPath id="2ebd60348e"><path d="M 110.8125 53.972656 L 199.371094 53.972656 L 199.371094 142.53125 L 110.8125 142.53125 Z M 110.8125 53.972656 " clip-rule="nonzero"/></clipPath><clipPath id="f22556dbd5"><path d="M 155.09375 53.972656 C 130.636719 53.972656 110.8125 73.796875 110.8125 98.25 C 110.8125 122.707031 130.636719 142.53125 155.09375 142.53125 C 179.546875 142.53125 199.371094 122.707031 199.371094 98.25 C 199.371094 73.796875 179.546875 53.972656 155.09375 53.972656 Z M 155.09375 53.972656 " clip-rule="nonzero"/></clipPath><clipPath id="902736b2f9"><path d="M 0.8125 0.972656 L 89.371094 0.972656 L 89.371094 89.53125 L 0.8125 89.53125 Z M 0.8125 0.972656 " clip-rule="nonzero"/></clipPath><clipPath id="b9596fcfc1"><path d="M 45.09375 0.972656 C 20.636719 0.972656 0.8125 20.796875 0.8125 45.25 C 0.8125 69.707031 20.636719 89.53125 45.09375 89.53125 C 69.546875 89.53125 89.371094 69.707031 89.371094 45.25 C 89.371094 20.796875 69.546875 0.972656 45.09375 0.972656 Z M 45.09375 0.972656 " clip-rule="nonzero"/></clipPath><clipPath id="85188fcebb"><rect x="0" width="90" y="0" height="90"/></clipPath><clipPath id="f30c49d2cc"><path d="M 280.175781 436.9375 L 448.566406 436.9375 L 448.566406 605.328125 L 280.175781 605.328125 Z M 280.175781 436.9375 " clip-rule="nonzero"/></clipPath><clipPath id="20c87e08d7"><path d="M 364.371094 436.9375 C 317.871094 436.9375 280.175781 474.632812 280.175781 521.132812 C 280.175781 567.632812 317.871094 605.328125 364.371094 605.328125 C 410.871094 605.328125 448.566406 567.632812 448.566406 521.132812 C 448.566406 474.632812 410.871094 436.9375 364.371094 436.9375 Z M 364.371094 436.9375 " clip-rule="nonzero"/></clipPath><clipPath id="9aee4fbbb1"><path d="M 0.175781 0.9375 L 168.566406 0.9375 L 168.566406 169.328125 L 0.175781 169.328125 Z M 0.175781 0.9375 " clip-rule="nonzero"/></clipPath><clipPath id="c14bdac2be"><path d="M 84.371094 0.9375 C 37.871094 0.9375 0.175781 38.632812 0.175781 85.132812 C 0.175781 131.632812 37.871094 169.328125 84.371094 169.328125 C 130.871094 169.328125 168.566406 131.632812 168.566406 85.132812 C 168.566406 38.632812 130.871094 0.9375 84.371094 0.9375 Z M 84.371094 0.9375 " clip-rule="nonzero"/></clipPath><clipPath id="51e0081c5e"><rect x="0" width="169" y="0" height="170"/></clipPath><clipPath id="84be25af5d"><path d="M 0.714844 375.585938 L 79.027344 375.585938 L 79.027344 453.898438 L 0.714844 453.898438 Z M 0.714844 375.585938 " clip-rule="nonzero"/></clipPath><clipPath id="383918e083"><path d="M 39.871094 375.585938 C 18.246094 375.585938 0.714844 393.117188 0.714844 414.742188 C 0.714844 436.367188 18.246094 453.898438 39.871094 453.898438 C 61.496094 453.898438 79.027344 436.367188 79.027344 414.742188 C 79.027344 393.117188 61.496094 375.585938 39.871094 375.585938 Z M 39.871094 375.585938 " clip-rule="nonzero"/></clipPath><clipPath id="2eac004ae9"><path d="M 0.714844 0.585938 L 79.027344 0.585938 L 79.027344 78.898438 L 0.714844 78.898438 Z M 0.714844 0.585938 " clip-rule="nonzero"/></clipPath><clipPath id="363bdf55c4"><path d="M 39.871094 0.585938 C 18.246094 0.585938 0.714844 18.117188 0.714844 39.742188 C 0.714844 61.367188 18.246094 78.898438 39.871094 78.898438 C 61.496094 78.898438 79.027344 61.367188 79.027344 39.742188 C 79.027344 18.117188 61.496094 0.585938 39.871094 0.585938 Z M 39.871094 0.585938 " clip-rule="nonzero"/></clipPath><clipPath id="7edf7b919e"><rect x="0" width="80" y="0" height="79"/></clipPath><clipPath id="15b0defba9"><path d="M 39.871094 108.324219 L 459.128906 108.324219 L 459.128906 521.132812 L 39.871094 521.132812 Z M 39.871094 108.324219 " clip-rule="nonzero"/></clipPath><clipPath id="7afdd68e9e"><path d="M 0.871094 0.324219 L 420.128906 0.324219 L 420.128906 413.132812 L 0.871094 413.132812 Z M 0.871094 0.324219 " clip-rule="nonzero"/></clipPath><clipPath id="a4bc0792a3"><rect x="0" width="421" y="0" height="414"/></clipPath><clipPath id="419d868c63"><path d="M 206.894531 553.636719 L 249.5 553.636719 L 249.5 596.246094 L 206.894531 596.246094 Z M 206.894531 553.636719 " clip-rule="nonzero"/></clipPath><clipPath id="46f0d17708"><path d="M 228.195312 553.636719 C 216.429688 553.636719 206.894531 563.175781 206.894531 574.941406 C 206.894531 586.707031 216.429688 596.246094 228.195312 596.246094 C 239.960938 596.246094 249.5 586.707031 249.5 574.941406 C 249.5 563.175781 239.960938 553.636719 228.195312 553.636719 Z M 228.195312 553.636719 " clip-rule="nonzero"/></clipPath><clipPath id="95761b1146"><path d="M 0.894531 0.636719 L 43.5 0.636719 L 43.5 43.246094 L 0.894531 43.246094 Z M 0.894531 0.636719 " clip-rule="nonzero"/></clipPath><clipPath id="ffbc934eac"><path d="M 22.195312 0.636719 C 10.429688 0.636719 0.894531 10.175781 0.894531 21.941406 C 0.894531 33.707031 10.429688 43.246094 22.195312 43.246094 C 33.960938 43.246094 43.5 33.707031 43.5 21.941406 C 43.5 10.175781 33.960938 0.636719 22.195312 0.636719 Z M 22.195312 0.636719 " clip-rule="nonzero"/></clipPath><clipPath id="d7a349d609"><rect x="0" width="44" y="0" height="44"/></clipPath><clipPath id="07d487e3e6"><path d="M 172 88 L 460.363281 88 L 460.363281 91 L 172 91 Z M 172 88 " clip-rule="nonzero"/></clipPath><clipPath id="30b0df2197"><path d="M 388.429688 549.457031 L 458.894531 549.457031 L 458.894531 631.824219 L 388.429688 631.824219 Z M 388.429688 549.457031 " clip-rule="nonzero"/></clipPath><clipPath id="d5fcca18a8"><path d="M 39.871094 20.789062 L 92.34375 20.789062 L 92.34375 81.507812 L 39.871094 81.507812 Z M 39.871094 20.789062 " clip-rule="nonzero"/></clipPath><clipPath id="89b8e7780c"><path d="M 417 9 L 451 9 L 451 43 L 417 43 Z M 417 9 " clip-rule="nonzero"/></clipPath><clipPath id="c0550fc8ab"><path d="M 409.003906 26.5625 L 433.464844 1.207031 L 458.824219 25.667969 L 434.363281 51.023438 Z M 409.003906 26.5625 " clip-rule="nonzero"/></clipPath><clipPath id="4719860b36"><path d="M 409.003906 26.5625 L 433.464844 1.207031 L 458.824219 25.667969 L 434.363281 51.023438 Z M 409.003906 26.5625 " clip-rule="nonzero"/></clipPath><clipPath id="e8f0a0c71e"><path d="M 48 585 L 82 585 L 82 620 L 48 620 Z M 48 585 " clip-rule="nonzero"/></clipPath><clipPath id="a33332e681"><path d="M 39.871094 602.644531 L 64.332031 577.289062 L 89.6875 601.746094 L 65.230469 627.105469 Z M 39.871094 602.644531 " clip-rule="nonzero"/></clipPath><clipPath id="671715466d"><path d="M 39.871094 602.644531 L 64.332031 577.289062 L 89.6875 601.746094 L 65.230469 627.105469 Z M 39.871094 602.644531 " clip-rule="nonzero"/></clipPath><clipPath id="ee7e6d1453"><rect x="0" width="330" y="0" height="162"/></clipPath><clipPath id="dc556ef724"><rect x="0" width="221" y="0" height="162"/></clipPath><clipPath id="854b88fdd3"><rect x="0" width="156" y="0" height="43"/></clipPath><clipPath id="6c051bdd89"><rect x="0" width="461" y="0" height="632"/></clipPath></defs><g transform="matrix(1, 0, 0, 1, 48, 106)"><g clip-path="url(#6c051bdd89)"><g clip-path="url(#2ebd60348e)"><g clip-path="url(#f22556dbd5)"><g transform="matrix(1, 0, 0, 1, 110, 53)"><g clip-path="url(#85188fcebb)"><g clip-path="url(#902736b2f9)"><g clip-path="url(#b9596fcfc1)"><path fill="#009689" d="M 0.8125 0.972656 L 89.371094 0.972656 L 89.371094 89.53125 L 0.8125 89.53125 Z M 0.8125 0.972656 " fill-opacity="1" fill-rule="nonzero"/></g></g></g></g></g></g><g clip-path="url(#f30c49d2cc)"><g clip-path="url(#20c87e08d7)"><g transform="matrix(1, 0, 0, 1, 280, 436)"><g clip-path="url(#51e0081c5e)"><g clip-path="url(#9aee4fbbb1)"><g clip-path="url(#c14bdac2be)"><path fill="#009689" d="M 0.175781 0.9375 L 168.566406 0.9375 L 168.566406 169.328125 L 0.175781 169.328125 Z M 0.175781 0.9375 " fill-opacity="1" fill-rule="nonzero"/></g></g></g></g></g></g><g clip-path="url(#84be25af5d)"><g clip-path="url(#383918e083)"><g transform="matrix(1, 0, 0, 1, 0, 375)"><g clip-path="url(#7edf7b919e)"><g clip-path="url(#2eac004ae9)"><g clip-path="url(#363bdf55c4)"><path fill="#009689" d="M 0.714844 0.585938 L 79.027344 0.585938 L 79.027344 78.898438 L 0.714844 78.898438 Z M 0.714844 0.585938 " fill-opacity="1" fill-rule="nonzero"/></g></g></g></g></g></g><g clip-path="url(#15b0defba9)"><g transform="matrix(1, 0, 0, 1, 39, 108)"><g clip-path="url(#a4bc0792a3)"><g clip-path="url(#7afdd68e9e)"><path fill="#060a14" d="M 0.871094 0.324219 L 420.128906 0.324219 L 420.128906 413.132812 L 0.871094 413.132812 Z M 0.871094 0.324219 " fill-opacity="1" fill-rule="nonzero"/></g></g></g></g><g clip-path="url(#419d868c63)"><g clip-path="url(#46f0d17708)"><g transform="matrix(1, 0, 0, 1, 206, 553)"><g clip-path="url(#d7a349d609)"><g clip-path="url(#95761b1146)"><g clip-path="url(#ffbc934eac)"><path fill="#009689" d="M 0.894531 0.636719 L 43.5 0.636719 L 43.5 43.246094 L 0.894531 43.246094 Z M 0.894531 0.636719 " fill-opacity="1" fill-rule="nonzero"/></g></g></g></g></g></g><g clip-path="url(#07d487e3e6)"><path stroke-linecap="butt" transform="matrix(0.749615, 0.000000000000000112, -0.000000000000000112, 0.749615, 173.979783, 88.3847)" fill="none" stroke-linejoin="miter" d="M 0.000914651 1.498252 L 380.394019 1.498252 " stroke="#003399" stroke-width="3" stroke-opacity="1" stroke-miterlimit="4"/></g><path stroke-linecap="butt" transform="matrix(0.749615, 0, 0, 0.749615, 39.870534, 538.824255)" fill="none" stroke-linejoin="miter" d="M 0.000747375 1.500722 L 380.393852 1.500722 " stroke="#003399" stroke-width="3" stroke-opacity="1" stroke-miterlimit="4"/><g clip-path="url(#30b0df2197)"><path fill="#003399" d="M 434.644531 575.039062 C 436.167969 575.039062 437.417969 576.285156 437.417969 577.808594 C 437.417969 579.332031 436.167969 580.582031 434.644531 580.582031 C 433.121094 580.582031 431.871094 579.332031 431.871094 577.808594 C 431.871094 576.285156 433.09375 575.039062 434.644531 575.039062 Z M 412.914062 575.039062 C 414.441406 575.039062 415.6875 576.285156 415.6875 577.808594 C 415.6875 579.332031 414.441406 580.582031 412.914062 580.582031 C 411.390625 580.582031 410.144531 579.332031 410.144531 577.808594 C 410.144531 576.285156 411.390625 575.039062 412.914062 575.039062 Z M 391.214844 575.039062 C 392.738281 575.039062 393.984375 576.285156 393.984375 577.808594 C 393.984375 579.332031 392.738281 580.582031 391.214844 580.582031 C 389.6875 580.582031 388.441406 579.332031 388.441406 577.808594 C 388.441406 576.285156 389.6875 575.039062 391.214844 575.039062 Z M 456.347656 575.039062 C 457.871094 575.039062 459.117188 576.285156 459.117188 577.808594 C 459.117188 579.332031 457.871094 580.582031 456.347656 580.582031 C 454.820312 580.582031 453.574219 579.332031 453.574219 577.808594 C 453.574219 576.285156 454.820312 575.039062 456.347656 575.039062 Z M 434.644531 600.648438 C 436.167969 600.648438 437.417969 601.894531 437.417969 603.417969 C 437.417969 604.945312 436.167969 606.191406 434.644531 606.191406 C 433.121094 606.191406 431.871094 604.945312 431.871094 603.417969 C 431.871094 601.894531 433.09375 600.648438 434.644531 600.648438 Z M 412.914062 600.648438 C 414.441406 600.648438 415.6875 601.894531 415.6875 603.417969 C 415.6875 604.945312 414.441406 606.191406 412.914062 606.191406 C 411.390625 606.191406 410.144531 604.945312 410.144531 603.417969 C 410.144531 601.894531 411.390625 600.648438 412.914062 600.648438 Z M 391.214844 600.648438 C 392.738281 600.648438 393.984375 601.894531 393.984375 603.417969 C 393.984375 604.945312 392.738281 606.191406 391.214844 606.191406 C 389.6875 606.191406 388.441406 604.945312 388.441406 603.417969 C 388.441406 601.894531 389.6875 600.648438 391.214844 600.648438 Z M 456.347656 600.648438 C 457.871094 600.648438 459.117188 601.894531 459.117188 603.417969 C 459.117188 604.945312 457.871094 606.191406 456.347656 606.191406 C 454.820312 606.191406 453.574219 604.945312 453.574219 603.417969 C 453.574219 601.894531 454.820312 600.648438 456.347656 600.648438 Z M 434.644531 549.457031 C 436.167969 549.457031 437.417969 550.703125 437.417969 552.226562 C 437.417969 553.75 436.167969 555 434.644531 555 C 433.121094 555 431.871094 553.75 431.871094 552.226562 C 431.871094 550.703125 433.09375 549.457031 434.644531 549.457031 Z M 412.914062 549.457031 C 414.441406 549.457031 415.6875 550.703125 415.6875 552.226562 C 415.6875 553.75 414.441406 555 412.914062 555 C 411.390625 555 410.144531 553.75 410.144531 552.226562 C 410.144531 550.703125 411.390625 549.457031 412.914062 549.457031 Z M 391.214844 549.457031 C 392.738281 549.457031 393.984375 550.703125 393.984375 552.226562 C 393.984375 553.75 392.738281 555 391.214844 555 C 389.6875 555 388.441406 553.75 388.441406 552.226562 C 388.441406 550.703125 389.6875 549.457031 391.214844 549.457031 Z M 456.347656 549.457031 C 457.871094 549.457031 459.117188 550.703125 459.117188 552.226562 C 459.117188 553.75 457.871094 555 456.347656 555 C 454.820312 555 453.574219 553.75 453.574219 552.226562 C 453.574219 550.703125 454.820312 549.457031 456.347656 549.457031 Z M 434.644531 626.230469 C 436.167969 626.230469 437.417969 627.476562 437.417969 629 C 437.417969 630.527344 436.167969 631.773438 434.644531 631.773438 C 433.121094 631.773438 431.871094 630.527344 431.871094 629 C 431.871094 627.476562 433.09375 626.230469 434.644531 626.230469 Z M 412.914062 626.230469 C 414.441406 626.230469 415.6875 627.476562 415.6875 629 C 415.6875 630.527344 414.441406 631.773438 412.914062 631.773438 C 411.390625 631.773438 410.144531 630.527344 410.144531 629 C 410.144531 627.476562 411.390625 626.230469 412.914062 626.230469 Z M 391.214844 626.230469 C 392.738281 626.230469 393.984375 627.476562 393.984375 629 C 393.984375 630.527344 392.738281 631.773438 391.214844 631.773438 C 389.6875 631.773438 388.441406 630.527344 388.441406 629 C 388.441406 627.476562 389.6875 626.230469 391.214844 626.230469 Z M 456.347656 626.230469 C 457.871094 626.230469 459.117188 627.476562 459.117188 629 C 459.117188 630.527344 457.871094 631.773438 456.347656 631.773438 C 454.820312 631.773438 453.574219 630.527344 453.574219 629 C 453.574219 627.476562 454.820312 626.230469 456.347656 626.230469 Z M 456.347656 626.230469 " fill-opacity="1" fill-rule="nonzero"/></g><g clip-path="url(#d5fcca18a8)"><path fill="#003399" d="M 73.988281 39.675781 C 75.113281 39.675781 76.03125 40.597656 76.03125 41.722656 C 76.03125 42.847656 75.113281 43.765625 73.988281 43.765625 C 72.863281 43.765625 71.941406 42.847656 71.941406 41.722656 C 71.941406 40.597656 72.839844 39.675781 73.988281 39.675781 Z M 57.945312 39.675781 C 59.070312 39.675781 59.992188 40.597656 59.992188 41.722656 C 59.992188 42.847656 59.070312 43.765625 57.945312 43.765625 C 56.820312 43.765625 55.898438 42.847656 55.898438 41.722656 C 55.898438 40.597656 56.820312 39.675781 57.945312 39.675781 Z M 41.925781 39.675781 C 43.050781 39.675781 43.972656 40.597656 43.972656 41.722656 C 43.972656 42.847656 43.050781 43.765625 41.925781 43.765625 C 40.800781 43.765625 39.878906 42.847656 39.878906 41.722656 C 39.878906 40.597656 40.800781 39.675781 41.925781 39.675781 Z M 90.007812 39.675781 C 91.132812 39.675781 92.054688 40.597656 92.054688 41.722656 C 92.054688 42.847656 91.132812 43.765625 90.007812 43.765625 C 88.882812 43.765625 87.960938 42.847656 87.960938 41.722656 C 87.960938 40.597656 88.882812 39.675781 90.007812 39.675781 Z M 73.988281 58.578125 C 75.113281 58.578125 76.03125 59.5 76.03125 60.625 C 76.03125 61.75 75.113281 62.671875 73.988281 62.671875 C 72.863281 62.671875 71.941406 61.75 71.941406 60.625 C 71.941406 59.5 72.839844 58.578125 73.988281 58.578125 Z M 57.945312 58.578125 C 59.070312 58.578125 59.992188 59.5 59.992188 60.625 C 59.992188 61.75 59.070312 62.671875 57.945312 62.671875 C 56.820312 62.671875 55.898438 61.75 55.898438 60.625 C 55.898438 59.5 56.820312 58.578125 57.945312 58.578125 Z M 41.925781 58.578125 C 43.050781 58.578125 43.972656 59.5 43.972656 60.625 C 43.972656 61.75 43.050781 62.671875 41.925781 62.671875 C 40.800781 62.671875 39.878906 61.75 39.878906 60.625 C 39.878906 59.5 40.800781 58.578125 41.925781 58.578125 Z M 90.007812 58.578125 C 91.132812 58.578125 92.054688 59.5 92.054688 60.625 C 92.054688 61.75 91.132812 62.671875 90.007812 62.671875 C 88.882812 62.671875 87.960938 61.75 87.960938 60.625 C 87.960938 59.5 88.882812 58.578125 90.007812 58.578125 Z M 73.988281 20.789062 C 75.113281 20.789062 76.03125 21.710938 76.03125 22.835938 C 76.03125 23.960938 75.113281 24.882812 73.988281 24.882812 C 72.863281 24.882812 71.941406 23.960938 71.941406 22.835938 C 71.941406 21.710938 72.839844 20.789062 73.988281 20.789062 Z M 57.945312 20.789062 C 59.070312 20.789062 59.992188 21.710938 59.992188 22.835938 C 59.992188 23.960938 59.070312 24.882812 57.945312 24.882812 C 56.820312 24.882812 55.898438 23.960938 55.898438 22.835938 C 55.898438 21.710938 56.820312 20.789062 57.945312 20.789062 Z M 41.925781 20.789062 C 43.050781 20.789062 43.972656 21.710938 43.972656 22.835938 C 43.972656 23.960938 43.050781 24.882812 41.925781 24.882812 C 40.800781 24.882812 39.878906 23.960938 39.878906 22.835938 C 39.878906 21.710938 40.800781 20.789062 41.925781 20.789062 Z M 90.007812 20.789062 C 91.132812 20.789062 92.054688 21.710938 92.054688 22.835938 C 92.054688 23.960938 91.132812 24.882812 90.007812 24.882812 C 88.882812 24.882812 87.960938 23.960938 87.960938 22.835938 C 87.960938 21.710938 88.882812 20.789062 90.007812 20.789062 Z M 73.988281 77.464844 C 75.113281 77.464844 76.03125 78.386719 76.03125 79.511719 C 76.03125 80.636719 75.113281 81.554688 73.988281 81.554688 C 72.863281 81.554688 71.941406 80.636719 71.941406 79.511719 C 71.941406 78.386719 72.839844 77.464844 73.988281 77.464844 Z M 57.945312 77.464844 C 59.070312 77.464844 59.992188 78.386719 59.992188 79.511719 C 59.992188 80.636719 59.070312 81.554688 57.945312 81.554688 C 56.820312 81.554688 55.898438 80.636719 55.898438 79.511719 C 55.898438 78.386719 56.820312 77.464844 57.945312 77.464844 Z M 41.925781 77.464844 C 43.050781 77.464844 43.972656 78.386719 43.972656 79.511719 C 43.972656 80.636719 43.050781 81.554688 41.925781 81.554688 C 40.800781 81.554688 39.878906 80.636719 39.878906 79.511719 C 39.878906 78.386719 40.800781 77.464844 41.925781 77.464844 Z M 90.007812 77.464844 C 91.132812 77.464844 92.054688 78.386719 92.054688 79.511719 C 92.054688 80.636719 91.132812 81.554688 90.007812 81.554688 C 88.882812 81.554688 87.960938 80.636719 87.960938 79.511719 C 87.960938 78.386719 88.882812 77.464844 90.007812 77.464844 Z M 90.007812 77.464844 " fill-opacity="1" fill-rule="nonzero"/></g><g clip-path="url(#89b8e7780c)"><g clip-path="url(#c0550fc8ab)"><g clip-path="url(#4719860b36)"><path fill="#003399" d="M 442.117188 9.257812 L 450.617188 17.460938 L 442.414062 25.960938 L 450.917969 34.164062 L 442.714844 42.667969 L 434.214844 34.464844 L 426.011719 42.96875 L 417.507812 34.765625 L 425.710938 26.261719 L 417.207031 18.0625 L 425.410156 9.558594 L 433.914062 17.761719 Z M 442.117188 9.257812 " fill-opacity="1" fill-rule="nonzero"/></g></g></g><g clip-path="url(#e8f0a0c71e)"><g clip-path="url(#a33332e681)"><g clip-path="url(#671715466d)"><path fill="#003399" d="M 72.980469 585.339844 L 81.484375 593.539062 L 73.28125 602.042969 L 81.785156 610.246094 L 73.582031 618.75 L 65.082031 610.546875 L 56.878906 619.050781 L 48.375 610.847656 L 56.578125 602.34375 L 48.074219 594.140625 L 56.277344 585.640625 L 64.78125 593.839844 Z M 72.980469 585.339844 " fill-opacity="1" fill-rule="nonzero"/></g></g></g><g transform="matrix(1, 0, 0, 1, 84, 192)"><g clip-path="url(#ee7e6d1453)"><g fill="#ffffff" fill-opacity="1"><g transform="translate(1.98827, 127.808132)"><g><path d="M 47.703125 -26.171875 C 47.703125 -16.898438 46.046875 -10.035156 42.734375 -5.578125 C 39.429688 -1.128906 34.234375 1.09375 27.140625 1.09375 C 20.054688 1.09375 14.757812 -1.273438 11.25 -6.015625 C 7.75 -10.765625 6 -17.59375 6 -26.5 L 6 -68.296875 C 6 -82.585938 9.738281 -91.507812 17.21875 -95.0625 C 19.988281 -96.375 23.332031 -97.03125 27.25 -97.03125 C 40.738281 -97.03125 47.484375 -88.523438 47.484375 -71.515625 L 47.484375 -58.328125 L 33.359375 -58.328125 L 33.359375 -70.59375 C 33.359375 -75.53125 32.941406 -79.0625 32.109375 -81.1875 C 31.273438 -83.320312 29.640625 -84.390625 27.203125 -84.390625 C 24.765625 -84.390625 23.070312 -83.257812 22.125 -81 C 21.1875 -78.75 20.71875 -75.296875 20.71875 -70.640625 L 20.71875 -25.84375 C 20.71875 -20.675781 21.171875 -16.984375 22.078125 -14.765625 C 22.984375 -12.554688 24.632812 -11.453125 27.03125 -11.453125 C 29.4375 -11.453125 31.09375 -12.578125 32 -14.828125 C 32.90625 -17.078125 33.359375 -20.800781 33.359375 -26 L 33.359375 -39.734375 L 47.703125 -39.734375 Z M 47.703125 -26.171875 "/></g></g></g><g fill="#ffffff" fill-opacity="1"><g transform="translate(54.370492, 127.808132)"><g><path d="M 20.71875 -26.65625 C 20.71875 -21.019531 21.144531 -17.09375 22 -14.875 C 22.851562 -12.664062 24.601562 -11.5625 27.25 -11.5625 C 29.90625 -11.5625 31.648438 -12.695312 32.484375 -14.96875 C 33.328125 -17.238281 33.75 -21.132812 33.75 -26.65625 L 33.75 -71.359375 C 33.75 -75.898438 33.320312 -79.210938 32.46875 -81.296875 C 31.613281 -83.390625 29.941406 -84.4375 27.453125 -84.4375 C 24.960938 -84.4375 23.21875 -83.390625 22.21875 -81.296875 C 21.21875 -79.210938 20.71875 -75.914062 20.71875 -71.40625 Z M 48.40625 -26.8125 C 48.40625 -17.4375 46.734375 -10.441406 43.390625 -5.828125 C 40.046875 -1.210938 34.691406 1.09375 27.328125 1.09375 C 19.972656 1.09375 14.578125 -1.222656 11.140625 -5.859375 C 7.710938 -10.492188 6 -17.476562 6 -26.8125 L 6 -70.703125 C 6 -88.285156 13.175781 -97.078125 27.53125 -97.078125 C 34.945312 -97.078125 40.28125 -94.84375 43.53125 -90.375 C 46.78125 -85.90625 48.40625 -79.347656 48.40625 -70.703125 Z M 48.40625 -26.8125 "/></g></g></g><g fill="#ffffff" fill-opacity="1"><g transform="translate(108.824019, 127.808132)"><g><path d="M 7.203125 0 L 7.203125 -95.9375 L 25.34375 -95.9375 L 38.96875 -25.84375 L 51.78125 -95.9375 L 70.046875 -95.9375 L 70.046875 0 L 57.015625 0 L 57.015625 -35.765625 L 57.5625 -68.578125 L 44.640625 -0.4375 L 33.03125 -0.4375 L 19.5625 -68.578125 L 20.109375 -35.765625 L 20.109375 0 Z M 7.203125 0 "/></g></g></g><g fill="#ffffff" fill-opacity="1"><g transform="translate(186.116391, 127.808132)"><g><path d="M 7.734375 0 L 7.734375 -95.9375 L 22.34375 -95.9375 L 22.34375 0 Z M 7.734375 0 "/></g></g></g><g fill="#ffffff" fill-opacity="1"><g transform="translate(216.204817, 127.808132)"><g><path d="M 7.203125 0 L 7.203125 -95.9375 L 18.640625 -95.9375 L 38.96875 -38.375 L 37.9375 -64.546875 L 37.9375 -95.9375 L 51.078125 -95.9375 L 51.078125 0 L 40.71875 0 L 19.84375 -59.578125 L 20.65625 -34.390625 L 20.65625 0 Z M 7.203125 0 "/></g></g></g><g fill="#ffffff" fill-opacity="1"><g transform="translate(274.473907, 127.808132)"><g><path d="M 25.234375 0.984375 C 19.203125 0.984375 14.488281 -1.382812 11.09375 -6.125 C 7.695312 -10.875 6 -18.191406 6 -28.078125 L 6 -69.78125 C 6 -78.644531 7.734375 -85.398438 11.203125 -90.046875 C 14.671875 -94.703125 20.1875 -97.03125 27.75 -97.03125 C 37.15625 -97.03125 43.132812 -93.523438 45.6875 -86.515625 C 47.207031 -82.296875 47.96875 -76.535156 47.96875 -69.234375 L 47.96875 -62.421875 L 34.34375 -62.421875 L 34.34375 -72.453125 C 34.34375 -76.847656 33.878906 -79.9375 32.953125 -81.71875 C 32.023438 -83.5 30.28125 -84.390625 27.71875 -84.390625 C 25.15625 -84.390625 23.347656 -83.320312 22.296875 -81.1875 C 21.242188 -79.0625 20.71875 -75.296875 20.71875 -69.890625 L 20.71875 -28.296875 C 20.71875 -22.003906 21.1875 -17.625 22.125 -15.15625 C 23.070312 -12.6875 24.914062 -11.453125 27.65625 -11.453125 C 30.40625 -11.453125 32.351562 -12.773438 33.5 -15.421875 C 34.644531 -18.078125 35.21875 -22.550781 35.21875 -28.84375 L 35.21875 -41.75 L 27.859375 -41.75 L 27.859375 -52.390625 L 47.96875 -52.390625 L 47.96875 0 L 41.421875 0 L 39.1875 -9.4375 C 38.425781 -6.195312 36.753906 -3.648438 34.171875 -1.796875 C 31.597656 0.0546875 28.617188 0.984375 25.234375 0.984375 Z M 25.234375 0.984375 "/></g></g></g></g></g><g transform="matrix(1, 0, 0, 1, 139, 303)"><g clip-path="url(#dc556ef724)"><g fill="#ffffff" fill-opacity="1"><g transform="translate(2.232099, 128.193831)"><g><path d="M 5.28125 -26.984375 L 5.28125 -35.546875 L 19.140625 -35.546875 L 19.140625 -25.890625 C 19.140625 -20.546875 19.59375 -16.789062 20.5 -14.625 C 21.40625 -12.46875 23.109375 -11.390625 25.609375 -11.390625 C 28.117188 -11.390625 29.78125 -12.28125 30.59375 -14.0625 C 31.414062 -15.84375 31.828125 -18.75 31.828125 -22.78125 C 31.828125 -26.820312 31.097656 -30.335938 29.640625 -33.328125 C 28.191406 -36.328125 25.890625 -39.460938 22.734375 -42.734375 L 15.640625 -50.046875 C 12.335938 -53.492188 9.765625 -57.070312 7.921875 -60.78125 C 6.085938 -64.488281 5.171875 -68.773438 5.171875 -73.640625 C 5.171875 -81.566406 6.695312 -87.453125 9.75 -91.296875 C 12.8125 -95.148438 18.066406 -97.078125 25.515625 -97.078125 C 32.960938 -97.078125 38.003906 -94.832031 40.640625 -90.34375 C 43.273438 -85.863281 44.59375 -79.316406 44.59375 -70.703125 L 44.59375 -64.765625 L 31.125 -64.765625 L 31.125 -71.625 C 31.125 -76.28125 30.722656 -79.613281 29.921875 -81.625 C 29.128906 -83.644531 27.59375 -84.65625 25.3125 -84.65625 C 23.039062 -84.65625 21.40625 -83.890625 20.40625 -82.359375 C 19.414062 -80.835938 18.921875 -78.550781 18.921875 -75.5 C 18.921875 -72.445312 19.425781 -70.007812 20.4375 -68.1875 C 21.457031 -66.375 23.296875 -64.050781 25.953125 -61.21875 L 33.859375 -52.65625 C 37.816406 -48.363281 40.800781 -44.019531 42.8125 -39.625 C 44.832031 -35.226562 45.84375 -30.429688 45.84375 -25.234375 C 45.84375 -16.265625 44.332031 -9.632812 41.3125 -5.34375 C 38.300781 -1.050781 33.023438 1.09375 25.484375 1.09375 C 17.941406 1.09375 12.6875 -1.296875 9.71875 -6.078125 C 6.757812 -10.859375 5.28125 -17.828125 5.28125 -26.984375 Z M 5.28125 -26.984375 "/></g></g></g><g fill="#ffffff" fill-opacity="1"><g transform="translate(51.561872, 128.193831)"><g><path d="M 20.71875 -26.65625 C 20.71875 -21.019531 21.144531 -17.09375 22 -14.875 C 22.851562 -12.664062 24.601562 -11.5625 27.25 -11.5625 C 29.90625 -11.5625 31.648438 -12.695312 32.484375 -14.96875 C 33.328125 -17.238281 33.75 -21.132812 33.75 -26.65625 L 33.75 -71.359375 C 33.75 -75.898438 33.320312 -79.210938 32.46875 -81.296875 C 31.613281 -83.390625 29.941406 -84.4375 27.453125 -84.4375 C 24.960938 -84.4375 23.21875 -83.390625 22.21875 -81.296875 C 21.21875 -79.210938 20.71875 -75.914062 20.71875 -71.40625 Z M 48.40625 -26.8125 C 48.40625 -17.4375 46.734375 -10.441406 43.390625 -5.828125 C 40.046875 -1.210938 34.691406 1.09375 27.328125 1.09375 C 19.972656 1.09375 14.578125 -1.222656 11.140625 -5.859375 C 7.710938 -10.492188 6 -17.476562 6 -26.8125 L 6 -70.703125 C 6 -88.285156 13.175781 -97.078125 27.53125 -97.078125 C 34.945312 -97.078125 40.28125 -94.84375 43.53125 -90.375 C 46.78125 -85.90625 48.40625 -79.347656 48.40625 -70.703125 Z M 48.40625 -26.8125 "/></g></g></g><g fill="#ffffff" fill-opacity="1"><g transform="translate(106.015399, 128.193831)"><g><path d="M 20.71875 -26.65625 C 20.71875 -21.019531 21.144531 -17.09375 22 -14.875 C 22.851562 -12.664062 24.601562 -11.5625 27.25 -11.5625 C 29.90625 -11.5625 31.648438 -12.695312 32.484375 -14.96875 C 33.328125 -17.238281 33.75 -21.132812 33.75 -26.65625 L 33.75 -71.359375 C 33.75 -75.898438 33.320312 -79.210938 32.46875 -81.296875 C 31.613281 -83.390625 29.941406 -84.4375 27.453125 -84.4375 C 24.960938 -84.4375 23.21875 -83.390625 22.21875 -81.296875 C 21.21875 -79.210938 20.71875 -75.914062 20.71875 -71.40625 Z M 48.40625 -26.8125 C 48.40625 -17.4375 46.734375 -10.441406 43.390625 -5.828125 C 40.046875 -1.210938 34.691406 1.09375 27.328125 1.09375 C 19.972656 1.09375 14.578125 -1.222656 11.140625 -5.859375 C 7.710938 -10.492188 6 -17.476562 6 -26.8125 L 6 -70.703125 C 6 -88.285156 13.175781 -97.078125 27.53125 -97.078125 C 34.945312 -97.078125 40.28125 -94.84375 43.53125 -90.375 C 46.78125 -85.90625 48.40625 -79.347656 48.40625 -70.703125 Z M 48.40625 -26.8125 "/></g></g></g><g fill="#ffffff" fill-opacity="1"><g transform="translate(160.468927, 128.193831)"><g><path d="M 7.203125 0 L 7.203125 -95.9375 L 18.640625 -95.9375 L 38.96875 -38.375 L 37.9375 -64.546875 L 37.9375 -95.9375 L 51.078125 -95.9375 L 51.078125 0 L 40.71875 0 L 19.84375 -59.578125 L 20.65625 -34.390625 L 20.65625 0 Z M 7.203125 0 "/></g></g></g></g></g><g transform="matrix(1, 0, 0, 1, 173, 173)"><g clip-path="url(#854b88fdd3)"><g fill="#ec6539" fill-opacity="1"><g transform="translate(1.824364, 33.222424)"><g><path d="M 1.328125 -6.78125 L 1.328125 -8.9375 L 4.8125 -8.9375 L 4.8125 -6.515625 C 4.8125 -5.171875 4.925781 -4.222656 5.15625 -3.671875 C 5.382812 -3.128906 5.8125 -2.859375 6.4375 -2.859375 C 7.070312 -2.859375 7.488281 -3.082031 7.6875 -3.53125 C 7.894531 -3.976562 8 -4.707031 8 -5.71875 C 8 -6.738281 7.816406 -7.625 7.453125 -8.375 C 7.085938 -9.132812 6.507812 -9.925781 5.71875 -10.75 L 3.9375 -12.578125 C 3.101562 -13.453125 2.453125 -14.351562 1.984375 -15.28125 C 1.523438 -16.21875 1.296875 -17.296875 1.296875 -18.515625 C 1.296875 -20.515625 1.679688 -22 2.453125 -22.96875 C 3.222656 -23.9375 4.546875 -24.421875 6.421875 -24.421875 C 8.296875 -24.421875 9.5625 -23.851562 10.21875 -22.71875 C 10.882812 -21.59375 11.21875 -19.945312 11.21875 -17.78125 L 11.21875 -16.28125 L 7.828125 -16.28125 L 7.828125 -18.015625 C 7.828125 -19.179688 7.722656 -20.019531 7.515625 -20.53125 C 7.316406 -21.039062 6.929688 -21.296875 6.359375 -21.296875 C 5.796875 -21.296875 5.382812 -21.101562 5.125 -20.71875 C 4.875 -20.332031 4.75 -19.753906 4.75 -18.984375 C 4.75 -18.222656 4.878906 -17.613281 5.140625 -17.15625 C 5.398438 -16.695312 5.863281 -16.109375 6.53125 -15.390625 L 8.515625 -13.25 C 9.515625 -12.164062 10.265625 -11.070312 10.765625 -9.96875 C 11.273438 -8.863281 11.53125 -7.65625 11.53125 -6.34375 C 11.53125 -4.09375 11.148438 -2.425781 10.390625 -1.34375 C 9.628906 -0.257812 8.300781 0.28125 6.40625 0.28125 C 4.507812 0.28125 3.1875 -0.316406 2.4375 -1.515625 C 1.695312 -2.722656 1.328125 -4.476562 1.328125 -6.78125 Z M 1.328125 -6.78125 "/></g></g></g><g fill="#ec6539" fill-opacity="1"><g transform="translate(17.989168, 33.222424)"><g><path d="M 3.046875 0 L 3.046875 -20.953125 L 0.21875 -20.953125 L 0.21875 -24.125 L 9.421875 -24.125 L 9.421875 -20.953125 L 6.703125 -20.953125 L 6.703125 0 Z M 3.046875 0 "/></g></g></g><g fill="#ec6539" fill-opacity="1"><g transform="translate(31.385988, 33.222424)"><g><path d="M 8.28125 -7.25 L 6.65625 -19.375 L 6.609375 -19.375 L 5.125 -7.25 Z M 0.71875 0 L 4.15625 -24.125 L 9 -24.125 L 12.671875 0 L 9.234375 0 L 8.671875 -4.3125 L 4.765625 -4.3125 L 4.25 0 Z M 0.71875 0 "/></g></g></g><g fill="#ec6539" fill-opacity="1"><g transform="translate(48.523688, 33.222424)"><g><path d="M 4.171875 0 L 4.171875 -9.640625 L 0.125 -24.125 L 3.640625 -24.125 L 6.015625 -15.109375 L 6.078125 -15.109375 L 8.203125 -24.125 L 11.6875 -24.125 L 7.84375 -9.640625 L 7.84375 0 Z M 4.171875 0 "/></g></g></g><g fill="#ec6539" fill-opacity="1"><g transform="translate(64.099259, 33.222424)"><g/></g></g><g fill="#ec6539" fill-opacity="1"><g transform="translate(72.891904, 33.222424)"><g><path d="M 3.046875 0 L 3.046875 -20.953125 L 0.21875 -20.953125 L 0.21875 -24.125 L 9.421875 -24.125 L 9.421875 -20.953125 L 6.703125 -20.953125 L 6.703125 0 Z M 3.046875 0 "/></g></g></g><g fill="#ec6539" fill-opacity="1"><g transform="translate(86.288723, 33.222424)"><g><path d="M 12.3125 -6.203125 C 12.3125 -3.972656 11.890625 -2.332031 11.046875 -1.28125 C 10.203125 -0.238281 8.847656 0.28125 6.984375 0.28125 C 5.128906 0.28125 3.78125 -0.242188 2.9375 -1.296875 C 2.09375 -2.347656 1.671875 -3.984375 1.671875 -6.203125 L 1.671875 -24.140625 L 5.34375 -24.140625 L 5.34375 -6.265625 C 5.34375 -4.992188 5.398438 -4.21875 5.515625 -3.9375 C 5.640625 -3.664062 5.785156 -3.414062 5.953125 -3.1875 C 6.117188 -2.96875 6.46875 -2.859375 7 -2.859375 C 7.53125 -2.859375 7.910156 -3.015625 8.140625 -3.328125 C 8.367188 -3.640625 8.507812 -4.023438 8.5625 -4.484375 C 8.613281 -4.953125 8.640625 -5.546875 8.640625 -6.265625 L 8.640625 -24.140625 L 12.3125 -24.140625 Z M 12.3125 -6.203125 "/></g></g></g><g fill="#ec6539" fill-opacity="1"><g transform="translate(104.029352, 33.222424)"><g><path d="M 1.8125 0 L 1.8125 -24.125 L 4.6875 -24.125 L 9.796875 -9.65625 L 9.546875 -16.234375 L 9.546875 -24.125 L 12.84375 -24.125 L 12.84375 0 L 10.234375 0 L 4.984375 -14.984375 L 5.203125 -8.65625 L 5.203125 0 Z M 1.8125 0 "/></g></g></g><g fill="#ec6539" fill-opacity="1"><g transform="translate(122.441431, 33.222424)"><g><path d="M 1.8125 0 L 1.8125 -24.125 L 9.90625 -24.125 L 9.90625 -20.96875 L 5.484375 -20.96875 L 5.484375 -13.9375 L 9.671875 -13.9375 L 9.671875 -10.84375 L 5.484375 -10.84375 L 5.484375 -3.171875 L 10.0625 -3.171875 L 10.0625 0 Z M 1.8125 0 "/></g></g></g><g fill="#ec6539" fill-opacity="1"><g transform="translate(137.386668, 33.222424)"><g><path d="M 5.46875 -2.859375 L 6.671875 -2.859375 C 7.347656 -2.859375 7.835938 -3.078125 8.140625 -3.515625 C 8.453125 -3.953125 8.609375 -4.753906 8.609375 -5.921875 L 8.59375 -17.84375 C 8.59375 -19.09375 8.4375 -19.984375 8.125 -20.515625 C 7.820312 -21.046875 7.296875 -21.3125 6.546875 -21.3125 L 5.46875 -21.3125 Z M 1.796875 0 L 1.796875 -24.125 L 7.21875 -24.125 C 8.988281 -24.125 10.269531 -23.597656 11.0625 -22.546875 C 11.863281 -21.503906 12.265625 -19.96875 12.265625 -17.9375 L 12.28125 -7.046875 C 12.28125 -4.617188 11.878906 -2.835938 11.078125 -1.703125 C 10.273438 -0.566406 8.945312 0 7.09375 0 Z M 1.796875 0 "/></g></g></g></g></g></g></g></svg>