<svg width="45" height="45" viewBox="0 0 45 45" fill="none" xmlns="http://www.w3.org/2000/svg">
<path d="M7.5 39.375H25.5375C26.6194 39.375 27.6885 39.1408 28.6714 38.6887C29.6544 38.2366 30.5278 37.5771 31.2319 36.7556L40.7981 25.5956C40.9984 25.3624 41.1383 25.0834 41.2054 24.7833C41.2725 24.4832 41.2648 24.1713 41.1829 23.8749C41.101 23.5785 40.9475 23.3068 40.7359 23.0837C40.5243 22.8606 40.261 22.693 39.9694 22.5956L36.2794 21.3656C35.3876 21.0753 34.4379 21.0094 33.5146 21.1739C32.5913 21.3384 31.7228 21.7282 30.9862 22.3088L25.0144 27.0844L23.8575 24.7688C23.2377 23.5205 22.2808 22.4708 21.0951 21.7384C19.9094 21.0061 18.5424 20.6204 17.1487 20.625H7.5C5.43187 20.625 3.75 22.3069 3.75 24.375V35.625C3.75 37.6931 5.43187 39.375 7.5 39.375ZM7.5 24.375H17.1487C18.5794 24.375 19.8638 25.1681 20.5031 26.4469L21.3412 28.125H13.125V31.875H24.4012C24.6897 31.8709 24.9733 31.8003 25.23 31.6688L25.2356 31.6669L25.2431 31.6631H25.2487L25.2525 31.6613H25.26L25.2619 31.6594C25.2787 31.665 25.2675 31.6575 25.2675 31.6575C25.2862 31.6575 25.2712 31.6556 25.2712 31.6556H25.2731L25.2769 31.6538L25.2825 31.6519L25.2862 31.65L25.29 31.6481L25.2956 31.6463L25.2994 31.6444C25.305 31.6444 25.3012 31.6425 25.3031 31.6425L25.3087 31.6388L25.3125 31.6369L25.3162 31.635L25.3219 31.6331L25.3256 31.6313H25.3275L25.3312 31.6294L25.3369 31.6275L25.3406 31.6256C25.3575 31.6238 25.3462 31.6238 25.3462 31.6238L25.35 31.6219C25.422 31.5778 25.4909 31.529 25.5562 31.4756L33.33 25.2563C33.8212 24.8663 34.4981 24.7444 35.0925 24.9431L36.1369 25.2919L28.3875 34.335C28.031 34.7397 27.5925 35.064 27.1012 35.2863C26.6098 35.5087 26.0768 35.6242 25.5375 35.625H7.5V24.375ZM30 3.75001H29.9681C29.6625 3.75376 28.0819 3.82314 26.25 5.07189C24.4669 3.85689 22.9237 3.75939 22.56 3.75189L22.5037 3.75001H22.4962C20.9944 3.75001 19.5806 4.33689 18.5231 5.39626C17.4619 6.45939 16.875 7.87126 16.875 9.37501C16.875 10.8788 17.4619 12.2906 18.4894 13.32L24.8906 20.0438C25.0667 20.2266 25.278 20.372 25.5116 20.4712C25.7453 20.5705 25.9965 20.6216 26.2504 20.6214C26.5043 20.6212 26.7555 20.5698 26.989 20.4702C27.2225 20.3706 27.4335 20.225 27.6094 20.0419L33.9769 13.3519C35.04 12.2906 35.625 10.8788 35.625 9.37501C35.625 7.87126 35.0381 6.45939 33.9787 5.39814C33.458 4.87433 32.8386 4.45896 32.1563 4.17607C31.474 3.89318 30.7424 3.74836 30.0037 3.75001H30ZM31.875 9.37501C31.875 9.87564 31.68 10.3463 31.2919 10.7344L26.25 16.0313L21.1744 10.7006C20.82 10.3463 20.625 9.87564 20.625 9.37501C20.625 8.87439 20.82 8.40376 21.1762 8.04751C21.5157 7.70313 21.9771 7.50642 22.4606 7.50001C22.5075 7.50189 23.4019 7.56001 24.4612 8.40939C24.6125 8.53189 24.7669 8.67064 24.9244 8.82564L26.25 10.1513L27.5756 8.82564C27.7331 8.67064 27.8875 8.53189 28.0387 8.40939C29.0306 7.61251 29.8687 7.51314 30.0112 7.50189C30.5043 7.50447 30.9765 7.70116 31.3256 8.04939C31.68 8.40376 31.875 8.87439 31.875 9.37501Z" fill="#008080"/>
</svg>
