<svg width="17" height="20" viewBox="0 0 17 20" fill="none" xmlns="http://www.w3.org/2000/svg">
<path d="M8.49967 0C4.28301 0 0.833008 3.6 0.833008 8C0.833008 13.4 7.54134 19.5 7.82884 19.8C8.02051 19.9 8.30801 20 8.49967 20C8.69134 20 8.97884 19.9 9.17051 19.8C9.45801 19.5 16.1663 13.4 16.1663 8C16.1663 3.6 12.7163 0 8.49967 0ZM8.49967 17.7C6.48717 15.7 2.74967 11.4 2.74967 8C2.74967 4.7 5.33717 2 8.49967 2C11.6622 2 14.2497 4.7 14.2497 8C14.2497 11.3 10.5122 15.7 8.49967 17.7ZM8.49967 4C6.39134 4 4.66634 5.8 4.66634 8C4.66634 10.2 6.39134 12 8.49967 12C10.608 12 12.333 10.2 12.333 8C12.333 5.8 10.608 4 8.49967 4ZM8.49967 10C7.44551 10 6.58301 9.1 6.58301 8C6.58301 6.9 7.44551 6 8.49967 6C9.55384 6 10.4163 6.9 10.4163 8C10.4163 9.1 9.55384 10 8.49967 10Z" fill="#7D7B7B" fill-opacity="0.93"/>
</svg>
