<svg width="14" height="18" viewBox="0 0 14 18" fill="none" xmlns="http://www.w3.org/2000/svg">
<path d="M6.99967 0.666504C3.33301 0.666504 0.333008 3.6665 0.333008 7.33317C0.333008 11.8332 6.16634 16.9165 6.41634 17.1665C6.58301 17.2498 6.83301 17.3332 6.99967 17.3332C7.16634 17.3332 7.41634 17.2498 7.58301 17.1665C7.83301 16.9165 13.6663 11.8332 13.6663 7.33317C13.6663 3.6665 10.6663 0.666504 6.99967 0.666504ZM6.99967 15.4165C5.24967 13.7498 1.99967 10.1665 1.99967 7.33317C1.99967 4.58317 4.24967 2.33317 6.99967 2.33317C9.74967 2.33317 11.9997 4.58317 11.9997 7.33317C11.9997 10.0832 8.74967 13.7498 6.99967 15.4165ZM6.99967 3.99984C5.16634 3.99984 3.66634 5.49984 3.66634 7.33317C3.66634 9.1665 5.16634 10.6665 6.99967 10.6665C8.83301 10.6665 10.333 9.1665 10.333 7.33317C10.333 5.49984 8.83301 3.99984 6.99967 3.99984ZM6.99967 8.99984C6.08301 8.99984 5.33301 8.24984 5.33301 7.33317C5.33301 6.4165 6.08301 5.6665 6.99967 5.6665C7.91634 5.6665 8.66634 6.4165 8.66634 7.33317C8.66634 8.24984 7.91634 8.99984 6.99967 8.99984Z" fill="#7D7B7B" fill-opacity="0.93"/>
</svg>
