<svg width="21" height="22" viewBox="0 0 21 22" fill="none" xmlns="http://www.w3.org/2000/svg">
<path d="M18.4132 2.9004L2.13215 9.2264L6.96115 11.2324C8.37248 11.8182 9.49382 12.9399 10.0792 14.3514L12.0852 19.1794L18.4132 2.9004ZM20.2602 3.5824L13.9322 19.8634C13.5322 20.8934 12.3812 21.4204 11.3612 21.0434C11.1125 20.9518 10.8855 20.8097 10.6945 20.626C10.5035 20.4424 10.3525 20.2212 10.2512 19.9764L8.24415 15.1464C7.85326 14.206 7.10571 13.4588 6.16515 13.0684L1.33715 11.0624C0.333151 10.6454 -0.124849 9.4864 0.314151 8.4724C0.422001 8.22454 0.577804 8.00046 0.772594 7.81305C0.967384 7.62564 1.19731 7.4786 1.44915 7.3804L17.7302 1.0524C18.0838 0.910256 18.4715 0.875175 18.845 0.951514C19.2184 1.02785 19.5612 1.21225 19.8308 1.48179C20.1003 1.75133 20.2847 2.09412 20.361 2.46759C20.4374 2.84105 20.4023 3.22871 20.2602 3.5824Z" fill="#FD7348"/>
</svg>
