<svg width="45" height="45" viewBox="0 0 45 45" fill="none" xmlns="http://www.w3.org/2000/svg">
<path d="M33.75 30.15C32.325 30.15 31.05 30.7125 30.075 31.5937L16.7062 23.8125C16.8 23.3812 16.875 22.95 16.875 22.5C16.875 22.05 16.8 21.6187 16.7062 21.1875L29.925 13.4812C30.9375 14.4187 32.2687 15 33.75 15C36.8625 15 39.375 12.4875 39.375 9.375C39.375 6.2625 36.8625 3.75 33.75 3.75C30.6375 3.75 28.125 6.2625 28.125 9.375C28.125 9.825 28.2 10.2562 28.2938 10.6875L15.075 18.3938C14.0625 17.4563 12.7312 16.875 11.25 16.875C8.1375 16.875 5.625 19.3875 5.625 22.5C5.625 25.6125 8.1375 28.125 11.25 28.125C12.7312 28.125 14.0625 27.5437 15.075 26.6062L28.425 34.4062C28.3312 34.8 28.275 35.2125 28.275 35.625C28.275 38.6437 30.7313 41.1 33.75 41.1C36.7687 41.1 39.225 38.6437 39.225 35.625C39.225 32.6062 36.7687 30.15 33.75 30.15ZM33.75 7.5C34.7812 7.5 35.625 8.34375 35.625 9.375C35.625 10.4062 34.7812 11.25 33.75 11.25C32.7188 11.25 31.875 10.4062 31.875 9.375C31.875 8.34375 32.7188 7.5 33.75 7.5ZM11.25 24.375C10.2188 24.375 9.375 23.5312 9.375 22.5C9.375 21.4687 10.2188 20.625 11.25 20.625C12.2812 20.625 13.125 21.4687 13.125 22.5C13.125 23.5312 12.2812 24.375 11.25 24.375ZM33.75 37.5375C32.7188 37.5375 31.875 36.6937 31.875 35.6625C31.875 34.6312 32.7188 33.7875 33.75 33.7875C34.7812 33.7875 35.625 34.6312 35.625 35.6625C35.625 36.6937 34.7812 37.5375 33.75 37.5375Z" fill="#008080"/>
</svg>
