<svg width="65" height="69" viewBox="0 0 65 69" fill="none" xmlns="http://www.w3.org/2000/svg">
<rect width="64.7016" height="68.9421" rx="10" fill="#FFEDD4"/>
<path d="M32.9391 55.1343C32.703 55.1343 32.4838 55.1175 32.2814 55.0837C32.079 55.05 31.8766 54.9994 31.6742 54.9319C27.1205 53.414 23.4943 50.6062 20.7958 46.5085C18.0973 42.4108 16.748 38.0001 16.748 33.2764V23.7135C16.748 22.8702 16.9929 22.1113 17.4827 21.4366C17.9725 20.762 18.6046 20.2729 19.3791 19.9693L31.5224 15.4156C31.9946 15.2469 32.4669 15.1626 32.9391 15.1626C33.4114 15.1626 33.8836 15.2469 34.3558 15.4156L46.4992 19.9693C47.275 20.2729 47.9078 20.762 48.3976 21.4366C48.8873 22.1113 49.1316 22.8702 49.1302 23.7135V33.2764C49.1302 37.9988 47.781 42.4095 45.0824 46.5085C42.3839 50.6076 38.7578 53.4154 34.2041 54.9319C34.0017 54.9994 33.7993 55.05 33.5969 55.0837C33.3945 55.1175 33.1752 55.1343 32.9391 55.1343ZM32.9391 51.0866C36.4472 49.9734 39.3481 47.7472 41.6418 44.4077C43.9356 41.0683 45.0824 37.3579 45.0824 33.2764V23.7135L32.9391 19.1598L20.7958 23.7135V33.2764C20.7958 37.3579 21.9427 41.0683 24.2364 44.4077C26.5302 47.7472 29.4311 49.9734 32.9391 51.0866Z" fill="#FD7348"/>
</svg>
