<svg width="88" height="69" viewBox="0 0 88 69" fill="none" xmlns="http://www.w3.org/2000/svg">
<rect x="0.797852" width="86.4058" height="68.9421" rx="10" fill="#CBFBF1"/>
<path d="M35.4305 30.2522C35.4305 29.6319 35.6769 29.037 36.1155 28.5984C36.5541 28.1598 37.149 27.9134 37.7693 27.9134H51.8023C52.4226 27.9134 53.0175 28.1598 53.4561 28.5984C53.8948 29.037 54.1412 29.6319 54.1412 30.2522C54.1412 30.8725 53.8948 31.4674 53.4561 31.906C53.0175 32.3446 52.4226 32.591 51.8023 32.591H37.7693C37.149 32.591 36.5541 32.3446 36.1155 31.906C35.6769 31.4674 35.4305 30.8725 35.4305 30.2522ZM37.7693 37.2687C37.149 37.2687 36.5541 37.5151 36.1155 37.9537C35.6769 38.3923 35.4305 38.9872 35.4305 39.6075C35.4305 40.2278 35.6769 40.8227 36.1155 41.2613C36.5541 41.7 37.149 41.9464 37.7693 41.9464H47.1247C47.745 41.9464 48.3399 41.7 48.7785 41.2613C49.2171 40.8227 49.4635 40.2278 49.4635 39.6075C49.4635 38.9872 49.2171 38.3923 48.7785 37.9537C48.3399 37.5151 47.745 37.2687 47.1247 37.2687H37.7693ZM21.3975 32.591C21.3986 27.4634 23.0849 22.4782 26.1967 18.4027C29.3085 14.3272 33.6735 11.3873 38.6197 10.0355C43.566 8.68361 48.8194 8.99471 53.5716 10.9209C58.3237 12.8471 62.3111 16.2816 64.9202 20.6959C67.5293 25.1101 68.6154 30.2595 68.0113 35.3515C67.4073 40.4434 65.1467 45.1958 61.5773 48.8771C58.0079 52.5585 53.3276 54.9648 48.2567 55.7258C43.1858 56.4867 38.0053 55.5601 33.5126 53.0886L24.4192 55.8578C24.0136 55.9813 23.5821 55.9923 23.1707 55.8895C22.7594 55.7867 22.3837 55.5741 22.0839 55.2742C21.7841 54.9744 21.5714 54.5988 21.4686 54.1874C21.3658 53.7761 21.3768 53.3445 21.5004 52.9389L24.2696 43.8315C22.3833 40.3853 21.3956 36.5196 21.3975 32.591ZM44.7858 13.8803C41.4644 13.8801 38.2027 14.7639 35.3359 16.4412C32.469 18.1184 30.1003 20.5285 28.473 23.424C26.8458 26.3195 26.0186 29.596 26.0764 32.9169C26.1343 36.2378 27.0751 39.4835 28.8022 42.3206C28.9737 42.6024 29.0836 42.9173 29.1247 43.2446C29.1658 43.5719 29.1372 43.9042 29.0408 44.2197L27.2492 50.1089L33.1291 48.3174C33.4456 48.2209 33.7789 48.1928 34.1071 48.2347C34.4353 48.2766 34.7508 48.3877 35.0329 48.5606C37.4988 50.0662 40.28 50.9802 43.1583 51.2311C46.0367 51.4819 48.934 51.0628 51.6232 50.0065C54.3125 48.9503 56.7206 47.2856 58.6588 45.1429C60.597 43.0002 62.0127 40.4378 62.7949 37.6564C63.5771 34.8751 63.7045 31.9504 63.1672 29.1115C62.6299 26.2727 61.4425 23.5968 59.698 21.2937C57.9535 18.9906 55.6993 17.1227 53.1121 15.8365C50.525 14.5503 47.6751 13.8808 44.7858 13.8803Z" fill="#009689"/>
</svg>
