<svg width="24" height="24" viewBox="0 0 24 24" fill="none" xmlns="http://www.w3.org/2000/svg">
<path d="M18.857 3H5.143C4.5748 3.00053 4.03003 3.22648 3.62826 3.62826C3.22648 4.03003 3.00053 4.5748 3 5.143V18.857C3 20.04 3.961 21 5.143 21H18.857C19.4252 20.9995 19.97 20.7735 20.3717 20.3717C20.7735 19.97 20.9995 19.4252 21 18.857V5.143C20.9995 4.5748 20.7735 4.03003 20.3717 3.62826C19.97 3.22648 19.4252 3.00053 18.857 3ZM17.145 10.853C16.5142 10.9142 15.8796 10.785 15.323 10.482C14.8535 10.2289 14.4548 9.86245 14.163 9.416V14.36C14.163 15.0827 13.9487 15.7892 13.5472 16.3901C13.1457 16.9909 12.575 17.4593 11.9073 17.7359C11.2396 18.0124 10.5049 18.0848 9.79614 17.9438C9.08733 17.8028 8.43625 17.4548 7.92523 16.9438C7.41421 16.4327 7.0662 15.7817 6.92521 15.0729C6.78422 14.3641 6.85658 13.6294 7.13314 12.9617C7.40971 12.294 7.87805 11.7233 8.47895 11.3218C9.07984 10.9203 9.78631 10.706 10.509 10.706C10.585 10.706 10.659 10.713 10.734 10.717V12.518C10.659 12.509 10.586 12.495 10.509 12.495C10.0144 12.495 9.54 12.6915 9.19025 13.0412C8.84049 13.391 8.644 13.8654 8.644 14.36C8.644 14.8546 8.84049 15.329 9.19025 15.6788C9.54 16.0285 10.0144 16.225 10.509 16.225C11.539 16.225 12.449 15.414 12.449 14.384L12.467 5.986H14.19C14.2689 6.73443 14.6082 7.43136 15.1487 7.95503C15.6892 8.4787 16.3965 8.79583 17.147 8.851V10.853" fill="#E8E5E5"/>
</svg>