<svg width="65" height="69" viewBox="0 0 65 69" fill="none" xmlns="http://www.w3.org/2000/svg">
<rect width="64.7016" height="68.9421" rx="10" fill="#D9D9D9"/>
<rect width="64.7016" height="68.9421" rx="10" fill="#DBEAFE"/>
<path d="M33.7857 49.2651V46.7352C33.7857 42.5438 29.9019 39.1457 25.1114 39.1457H22.2212C17.4307 39.1457 13.5469 42.5438 13.5469 46.7352V49.2651M38.4123 39.1457H41.3024C46.093 39.1457 49.9768 42.5438 49.9768 46.7352V49.2651M37.8335 21.2748C38.7491 20.9521 39.7287 20.8538 40.6902 20.9879C41.6517 21.1221 42.567 21.4848 43.3594 22.0457C44.1517 22.6067 44.798 23.3494 45.2441 24.2116C45.6901 25.0739 45.9229 26.0305 45.9229 27.0013C45.9229 27.9721 45.6901 28.9288 45.2441 29.791C44.798 30.6533 44.1517 31.396 43.3594 31.9569C42.567 32.5179 41.6517 32.8806 40.6902 33.0148C39.7287 33.1489 38.7491 33.0505 37.8335 32.7279M29.738 27.0024C29.738 28.6127 29.0983 30.157 27.9596 31.2957C26.821 32.4343 25.2766 33.074 23.6663 33.074C22.056 33.074 20.5116 32.4343 19.373 31.2957C18.2343 30.157 17.5946 28.6127 17.5946 27.0024C17.5946 25.3921 18.2343 23.8477 19.373 22.709C20.5116 21.5704 22.056 20.9307 23.6663 20.9307C25.2766 20.9307 26.821 21.5704 27.9596 22.709C29.0983 23.8477 29.738 25.3921 29.738 27.0024Z" stroke="#0B0C1E" stroke-width="2" stroke-linecap="round" stroke-linejoin="round"/>
<path d="M33.7857 49.2651V46.7352C33.7857 42.5438 29.9019 39.1457 25.1114 39.1457H22.2212C17.4307 39.1457 13.5469 42.5438 13.5469 46.7352V49.2651M38.4123 39.1457H41.3024C46.093 39.1457 49.9768 42.5438 49.9768 46.7352V49.2651M37.8335 21.2748C38.7491 20.9521 39.7287 20.8538 40.6902 20.9879C41.6517 21.1221 42.567 21.4848 43.3594 22.0457C44.1517 22.6067 44.798 23.3494 45.2441 24.2116C45.6901 25.0739 45.9229 26.0305 45.9229 27.0013C45.9229 27.9721 45.6901 28.9288 45.2441 29.791C44.798 30.6533 44.1517 31.396 43.3594 31.9569C42.567 32.5179 41.6517 32.8806 40.6902 33.0148C39.7287 33.1489 38.7491 33.0505 37.8335 32.7279M29.738 27.0024C29.738 28.6127 29.0983 30.157 27.9596 31.2957C26.821 32.4343 25.2766 33.074 23.6663 33.074C22.056 33.074 20.5116 32.4343 19.373 31.2957C18.2343 30.157 17.5946 28.6127 17.5946 27.0024C17.5946 25.3921 18.2343 23.8477 19.373 22.709C20.5116 21.5704 22.056 20.9307 23.6663 20.9307C25.2766 20.9307 26.821 21.5704 27.9596 22.709C29.0983 23.8477 29.738 25.3921 29.738 27.0024Z" stroke="#0B0C1E" stroke-width="2" stroke-linecap="round" stroke-linejoin="round"/>
<path d="M33.7857 49.2651V46.7352C33.7857 42.5438 29.9019 39.1457 25.1114 39.1457H22.2212C17.4307 39.1457 13.5469 42.5438 13.5469 46.7352V49.2651M38.4123 39.1457H41.3024C46.093 39.1457 49.9768 42.5438 49.9768 46.7352V49.2651M37.8335 21.2748C38.7491 20.9521 39.7287 20.8538 40.6902 20.9879C41.6517 21.1221 42.567 21.4848 43.3594 22.0457C44.1517 22.6067 44.798 23.3494 45.2441 24.2116C45.6901 25.0739 45.9229 26.0305 45.9229 27.0013C45.9229 27.9721 45.6901 28.9288 45.2441 29.791C44.798 30.6533 44.1517 31.396 43.3594 31.9569C42.567 32.5179 41.6517 32.8806 40.6902 33.0148C39.7287 33.1489 38.7491 33.0505 37.8335 32.7279M29.738 27.0024C29.738 28.6127 29.0983 30.157 27.9596 31.2957C26.821 32.4343 25.2766 33.074 23.6663 33.074C22.056 33.074 20.5116 32.4343 19.373 31.2957C18.2343 30.157 17.5946 28.6127 17.5946 27.0024C17.5946 25.3921 18.2343 23.8477 19.373 22.709C20.5116 21.5704 22.056 20.9307 23.6663 20.9307C25.2766 20.9307 26.821 21.5704 27.9596 22.709C29.0983 23.8477 29.738 25.3921 29.738 27.0024Z" stroke="#165DFB" stroke-width="2" stroke-linecap="round" stroke-linejoin="round"/>
</svg>
