<svg width="14" height="18" viewBox="0 0 14 18" fill="none" xmlns="http://www.w3.org/2000/svg">
<path d="M6.99967 0.666016C3.33301 0.666016 0.333008 3.66602 0.333008 7.33268C0.333008 11.8327 6.16634 16.916 6.41634 17.166C6.58301 17.2493 6.83301 17.3327 6.99967 17.3327C7.16634 17.3327 7.41634 17.2493 7.58301 17.166C7.83301 16.916 13.6663 11.8327 13.6663 7.33268C13.6663 3.66602 10.6663 0.666016 6.99967 0.666016ZM6.99967 15.416C5.24967 13.7493 1.99967 10.166 1.99967 7.33268C1.99967 4.58268 4.24967 2.33268 6.99967 2.33268C9.74967 2.33268 11.9997 4.58268 11.9997 7.33268C11.9997 10.0827 8.74967 13.7493 6.99967 15.416ZM6.99967 3.99935C5.16634 3.99935 3.66634 5.49935 3.66634 7.33268C3.66634 9.16602 5.16634 10.666 6.99967 10.666C8.83301 10.666 10.333 9.16602 10.333 7.33268C10.333 5.49935 8.83301 3.99935 6.99967 3.99935ZM6.99967 8.99935C6.08301 8.99935 5.33301 8.24935 5.33301 7.33268C5.33301 6.41602 6.08301 5.66602 6.99967 5.66602C7.91634 5.66602 8.66634 6.41602 8.66634 7.33268C8.66634 8.24935 7.91634 8.99935 6.99967 8.99935Z" fill="white"/>
</svg>
