<svg width="86" height="17" viewBox="0 0 86 17" fill="none" xmlns="http://www.w3.org/2000/svg">
<path d="M0.36 17L7.08 0.0559993H10.488L17.136 17H13.152L8.064 2.936H9.432L4.272 17H0.36ZM4.176 13.928V10.856H13.416V13.928H4.176ZM21.4654 17L16.0174 0.0559993H19.7614L23.7454 13.088H22.2814L26.1694 0.0559993H29.1214L33.0094 13.088H31.5694L35.5294 0.0559993H39.2494L33.8014 17H30.8494L26.9374 3.968H28.3294L24.4174 17H21.4654ZM38.1413 17L44.8613 0.0559993H48.2693L54.9173 17H50.9333L45.8453 2.936H47.2133L42.0533 17H38.1413ZM41.9573 13.928V10.856H51.1973V13.928H41.9573ZM66.9581 17L60.0941 8.168L66.7421 0.0559993H71.3981L63.9101 8.864V7.328L71.6381 17H66.9581ZM56.7101 17V0.0559993H60.4781V17H56.7101ZM73.2101 17V0.0559993H76.9781V17H73.2101ZM76.0901 17V13.736H85.3781V17H76.0901ZM76.0901 9.92V6.776H84.5381V9.92H76.0901ZM76.0901 3.296V0.0559993H85.2581V3.296H76.0901Z" fill="#008080"/>
</svg>
